<?xml version="1.0" standalone="no"?>
<!DOCTYPE svg PUBLIC "-//W3C//DTD SVG 20010904//EN"
 "http://www.w3.org/TR/2001/REC-SVG-20010904/DTD/svg10.dtd">
<svg version="1.0" xmlns="http://www.w3.org/2000/svg"
 width="256.000000pt" height="256.000000pt" viewBox="0 0 256.000000 256.000000"
 preserveAspectRatio="xMidYMid meet">
<metadata>
Created by potrace 1.13, written by Peter Selinger 2001-2015
</metadata>
<g transform="translate(0.000000,256.000000) scale(0.100000,-0.100000)"
fill="#000000" stroke="none">
<path d="M82 2160 c-18 -11 -41 -34 -52 -52 -19 -32 -20 -52 -20 -834 l0 -801
39 -44 39 -44 1186 -3 1185 -2 46 43 45 44 0 813 0 813 -45 44 -45 43 -1173 0
c-1152 0 -1173 0 -1205 -20z m1665 -309 l103 -6 -276 -180 c-152 -99 -280
-181 -284 -183 -10 -4 -112 60 -385 239 l-190 124 90 6 c125 7 818 8 942 0z
m-962 -442 c231 -150 438 -279 460 -287 28 -10 49 -11 70 -4 17 5 206 123 420
262 215 139 414 268 443 287 l52 34 0 -496 0 -495 -950 0 -950 0 0 488 c0 269
3 492 7 495 3 4 11 3 17 -2 6 -5 200 -131 431 -282z"/>
</g>
</svg>
