<?xml version="1.0" standalone="no"?>
<!DOCTYPE svg PUBLIC "-//W3C//DTD SVG 20010904//EN"
 "http://www.w3.org/TR/2001/REC-SVG-20010904/DTD/svg10.dtd">
<svg version="1.0" xmlns="http://www.w3.org/2000/svg"
 width="768.000000pt" height="768.000000pt" viewBox="0 0 768.000000 768.000000"
 preserveAspectRatio="xMidYMid meet">
<metadata>
Created by potrace 1.13, written by Peter Selinger 2001-2015
</metadata>
<g transform="translate(0.000000,768.000000) scale(0.100000,-0.100000)"
fill="#000000" stroke="none">
<path d="M1118 6777 c-133 -46 -237 -144 -290 -275 l-23 -57 -3 -2605 c-2
-1917 0 -2621 9 -2665 17 -93 55 -163 128 -236 71 -70 140 -109 229 -128 38
-8 469 -11 1477 -11 l1425 0 0 1185 0 1185 -400 0 -400 0 0 450 0 450 398 2
397 3 6 490 c5 404 9 502 22 557 58 239 151 403 314 558 175 166 388 262 688
312 141 23 794 10 888 -18 17 -6 18 -21 11 -292 -4 -158 -9 -348 -13 -422 l-6
-135 -340 -1 c-281 0 -350 -3 -398 -16 -108 -30 -164 -86 -192 -193 -12 -48
-15 -130 -15 -452 l0 -393 469 0 470 0 -4 -32 c-3 -18 -12 -197 -20 -398 -9
-201 -18 -389 -21 -417 l-5 -53 -445 0 -444 0 0 -1185 0 -1185 715 0 c486 0
731 4 767 11 89 19 158 58 229 128 70 71 109 140 128 229 14 66 16 5316 2
5308 -5 -3 -12 6 -16 22 -10 41 -69 133 -112 173 -52 50 -110 84 -182 109 -60
20 -70 20 -2718 20 l-2658 -1 -67 -22z"/>
</g>
</svg>
