<?xml version="1.0" standalone="no"?>
<!DOCTYPE svg PUBLIC "-//W3C//DTD SVG 20010904//EN"
 "http://www.w3.org/TR/2001/REC-SVG-20010904/DTD/svg10.dtd">
<svg version="1.0" xmlns="http://www.w3.org/2000/svg"
 width="800.000000pt" height="600.000000pt" viewBox="0 0 800.000000 600.000000"
 preserveAspectRatio="xMidYMid meet">
<metadata>
Created by potrace 1.13, written by Peter Selinger 2001-2015
</metadata>
<g transform="translate(0.000000,600.000000) scale(0.100000,-0.100000)"
fill="#000000" stroke="none">
<path d="M3812 5759 c-1192 -81 -2210 -930 -2502 -2089 -241 -953 36 -1957
729 -2651 694 -694 1698 -970 2652 -729 484 122 928 376 1284 734 691 696 965
1694 725 2646 -248 983 -1027 1762 -2011 2010 -159 40 -335 68 -514 80 -166
11 -187 11 -363 -1z m-256 -1644 c110 -20 216 -56 319 -108 81 -42 235 -150
235 -165 0 -5 -73 -81 -162 -169 l-161 -161 -47 34 c-110 79 -238 119 -380
118 -184 -1 -326 -60 -456 -189 -128 -127 -194 -284 -194 -460 0 -176 66 -333
194 -460 132 -131 271 -189 451 -189 120 -1 184 14 290 64 129 62 236 166 296
285 l30 60 -316 3 -315 2 2 233 3 232 556 3 556 2 12 -88 c15 -117 14 -197 -4
-312 -26 -175 -78 -307 -180 -460 -145 -219 -381 -386 -643 -458 -89 -24 -113
-26 -282 -26 -156 0 -197 4 -260 21 -375 104 -649 345 -781 687 -96 248 -99
531 -8 779 135 373 463 652 848 721 104 19 290 19 397 1z m1824 -705 l0 -190
190 0 190 0 0 -145 0 -145 -190 0 -190 0 0 -195 0 -195 -145 0 -145 0 0 195 0
195 -195 0 -195 0 0 145 0 145 195 0 195 0 0 190 0 190 145 0 145 0 0 -190z"/>
</g>
</svg>
