<?xml version="1.0" standalone="no"?>
<!DOCTYPE svg PUBLIC "-//W3C//DTD SVG 20010904//EN"
 "http://www.w3.org/TR/2001/REC-SVG-20010904/DTD/svg10.dtd">
<svg version="1.0" xmlns="http://www.w3.org/2000/svg"
 width="416.000000pt" height="333.000000pt" viewBox="0 0 416.000000 333.000000"
 preserveAspectRatio="xMidYMid meet">
<metadata>
Created by potrace 1.13, written by Peter Selinger 2001-2015
</metadata>
<g transform="translate(0.000000,333.000000) scale(0.100000,-0.100000)"
fill="#000000" stroke="none">
<path d="M316 3319 c-113 -27 -224 -121 -279 -237 l-32 -67 0 -1351 0 -1350
37 -75 c46 -93 112 -158 206 -202 l67 -32 1766 0 1765 0 75 37 c93 46 158 112
202 206 l32 67 0 1350 0 1350 -32 67 c-44 94 -109 160 -202 206 l-75 37 -1745
2 c-1032 0 -1762 -3 -1785 -8z m3424 -1654 l0 -1245 -1660 0 -1660 0 0 1245 0
1245 1660 0 1660 0 0 -1245z"/>
<path d="M830 2290 l0 -190 520 0 520 0 0 190 0 190 -520 0 -520 0 0 -190z"/>
<path d="M2712 2469 c-115 -20 -203 -91 -242 -196 -41 -110 -47 -301 -14 -431
18 -69 42 -115 125 -240 71 -106 86 -148 76 -209 -13 -78 -115 -163 -263 -218
-87 -33 -89 -34 -96 -72 -4 -21 -7 -86 -7 -145 l-1 -108 522 0 521 0 -7 135
c-3 74 -9 141 -12 149 -3 7 -20 17 -37 20 -62 12 -214 94 -259 140 -89 88 -84
158 19 312 116 173 143 251 143 424 0 297 -101 430 -337 444 -43 3 -102 1
-131 -5z"/>
<path d="M830 1665 l0 -185 520 0 520 0 0 185 0 185 -520 0 -520 0 0 -185z"/>
<path d="M830 1040 l0 -190 520 0 520 0 0 190 0 190 -520 0 -520 0 0 -190z"/>
</g>
</svg>
