<?xml version="1.0" standalone="no"?>
<!DOCTYPE svg PUBLIC "-//W3C//DTD SVG 20010904//EN"
 "http://www.w3.org/TR/2001/REC-SVG-20010904/DTD/svg10.dtd">
<svg version="1.0" xmlns="http://www.w3.org/2000/svg"
 width="128.000000pt" height="128.000000pt" viewBox="0 0 128.000000 128.000000"
 preserveAspectRatio="xMidYMid meet">
<metadata>
Created by potrace 1.13, written by Peter Selinger 2001-2015
</metadata>
<g transform="translate(0.000000,128.000000) scale(0.100000,-0.100000)"
fill="#000000" stroke="none">
<path d="M524 1270 c-58 -12 -137 -54 -178 -94 -59 -60 -88 -134 -94 -242 l-5
-94 70 0 70 0 7 66 c16 158 89 224 246 224 157 0 230 -66 246 -224 l7 -66 70
0 70 0 -5 93 c-8 150 -70 253 -184 306 -82 39 -215 51 -320 31z"/>
<path d="M180 771 c-19 -10 -45 -33 -57 -51 -23 -32 -23 -39 -23 -324 0 -273
1 -293 20 -324 11 -18 34 -41 52 -52 32 -19 52 -20 468 -20 416 0 436 1 468
20 18 11 41 34 52 52 19 31 20 51 20 324 0 427 45 394 -540 394 -395 0 -428
-1 -460 -19z m231 -310 c21 -22 29 -39 29 -66 0 -51 -44 -95 -95 -95 -51 0
-95 44 -95 95 0 51 44 95 95 95 27 0 44 -8 66 -29z m273 18 c32 -15 60 -72 51
-106 -17 -70 -110 -99 -160 -49 -34 34 -40 68 -20 109 24 52 76 70 129 46z
m317 -18 c21 -22 29 -39 29 -66 0 -51 -44 -95 -95 -95 -51 0 -95 44 -95 95 0
51 44 95 95 95 27 0 44 -8 66 -29z"/>
</g>
</svg>
