<?xml version="1.0" standalone="no"?>
<!DOCTYPE svg PUBLIC "-//W3C//DTD SVG 20010904//EN"
 "http://www.w3.org/TR/2001/REC-SVG-20010904/DTD/svg10.dtd">
<svg version="1.0" xmlns="http://www.w3.org/2000/svg"
 width="256.000000pt" height="256.000000pt" viewBox="0 0 256.000000 256.000000"
 preserveAspectRatio="xMidYMid meet">
<metadata>
Created by potrace 1.13, written by Peter Selinger 2001-2015
</metadata>
<g transform="translate(0.000000,256.000000) scale(0.100000,-0.100000)"
fill="#000000" stroke="none">
<path d="M55 2550 c-37 -14 -49 -39 -47 -99 5 -163 34 -604 43 -656 6 -33 23
-87 38 -120 22 -47 26 -66 19 -90 -5 -16 -15 -73 -23 -125 -102 -657 356
-1274 1020 -1377 128 -19 325 -12 445 17 458 111 800 452 910 910 29 120 36
317 17 445 -103 665 -720 1122 -1377 1020 -52 -8 -108 -18 -125 -23 -24 -7
-40 -4 -76 14 -80 40 -164 52 -469 69 -162 8 -308 17 -325 19 -16 2 -39 0 -50
-4z m295 -160 c11 -11 20 -24 20 -30 0 -5 8 -10 18 -11 12 0 13 -2 3 -6 -11
-5 -11 -7 0 -14 12 -7 11 -9 -1 -9 -8 -1 -24 -15 -35 -33 -11 -18 -36 -40 -55
-49 -42 -21 -116 -23 -150 -3 l-25 14 33 1 c76 0 137 51 148 122 7 43 15 47
44 18z m379 -205 c18 -39 25 -45 54 -46 l32 -1 -29 -12 -29 -13 29 -11 29 -10
-34 -8 c-25 -5 -37 -15 -47 -40 -32 -77 -122 -145 -210 -159 l-39 -6 38 21
c95 52 164 160 174 271 3 32 7 59 8 59 2 0 12 -20 24 -45z m251 -136 l21 -51
45 4 c45 3 45 3 24 -14 -12 -10 -31 -18 -43 -18 -31 0 -12 -12 30 -20 l38 -7
-48 -14 c-43 -12 -50 -18 -71 -64 -29 -64 -77 -119 -131 -150 -52 -31 -150
-65 -184 -65 -22 1 -18 5 24 27 148 76 245 228 245 384 0 51 2 60 14 50 8 -6
24 -34 36 -62z m710 -167 c0 -4 -5 -13 -12 -20 -9 -9 1 -10 40 -5 83 9 61 -27
-33 -58 l-40 -12 75 -24 c130 -40 203 -112 247 -242 17 -50 27 -68 45 -73 36
-10 114 -9 142 2 16 6 26 6 26 0 0 -19 -43 -48 -88 -60 -77 -20 -80 -21 -57
-30 11 -5 52 -9 90 -10 l70 -1 -29 -24 c-27 -22 -68 -36 -141 -50 -26 -5 -33
-13 -49 -58 -101 -293 -421 -489 -796 -489 -143 0 -233 17 -351 67 -97 41
-158 82 -241 164 -75 72 -87 93 -32 56 77 -52 141 -69 260 -70 107 0 112 1
185 37 41 20 85 48 97 61 l23 25 -28 6 c-73 18 -97 74 -53 122 l21 21 -48 7
c-55 7 -118 45 -129 78 -8 25 25 58 57 58 24 0 25 17 2 22 -12 2 -2 13 34 36
50 32 139 119 160 156 9 17 12 17 41 2 18 -9 56 -36 87 -61 60 -49 65 -52 65
-30 0 22 69 175 105 230 37 57 122 155 136 155 5 0 9 -7 9 -17 0 -15 1 -15 18
0 30 27 92 47 92 29z"/>
</g>
</svg>
