<?xml version="1.0" standalone="no"?>
<!DOCTYPE svg PUBLIC "-//W3C//DTD SVG 20010904//EN"
 "http://www.w3.org/TR/2001/REC-SVG-20010904/DTD/svg10.dtd">
<svg version="1.0" xmlns="http://www.w3.org/2000/svg"
 width="352.000000pt" height="512.000000pt" viewBox="0 0 352.000000 512.000000"
 preserveAspectRatio="xMidYMid meet">
<metadata>
Created by potrace 1.13, written by Peter Selinger 2001-2015
</metadata>
<g transform="translate(0.000000,512.000000) scale(0.100000,-0.100000)"
fill="#000000" stroke="none">
<path d="M784 5099 c-108 -134 -261 -767 -414 -1704 -28 -170 -68 -418 -90
-550 -21 -132 -41 -260 -44 -285 -3 -25 -20 -155 -37 -290 l-32 -245 -44 -39
c-131 -115 -160 -365 -68 -572 15 -33 35 -86 46 -120 37 -119 119 -218 204
-247 37 -13 38 -15 81 -138 109 -314 231 -472 520 -675 264 -186 368 -218 743
-230 351 -11 612 20 752 91 81 41 304 195 391 270 159 136 279 326 354 558 34
107 39 116 65 122 78 17 159 115 208 251 16 43 41 108 56 143 79 191 46 436
-76 545 l-47 42 -20 165 c-12 90 -28 233 -37 318 -9 85 -29 224 -46 310 -16
86 -52 291 -79 456 -152 931 -280 1501 -395 1751 -47 103 -55 102 -55 -5 0
-232 -43 -646 -86 -821 -29 -121 -55 -185 -91 -222 -32 -34 -60 -35 -139 -7
-95 33 -288 77 -408 94 -263 37 -562 8 -837 -81 -58 -19 -118 -34 -132 -34
-115 0 -204 390 -226 987 -4 133 -9 173 -17 162z m334 -3049 c205 -118 365
-217 356 -218 -32 -7 -519 40 -530 52 -7 6 -56 74 -110 151 -53 77 -122 176
-152 219 l-56 79 61 -34 c33 -19 227 -131 431 -249z m1700 218 c-25 -35 -96
-137 -159 -227 -62 -90 -118 -165 -124 -167 -23 -7 -544 -49 -537 -43 8 8 855
499 860 499 2 0 -16 -28 -40 -62z m-1441 -907 c118 -29 227 -74 311 -126 l73
-45 42 28 c58 40 128 75 217 106 231 83 527 87 760 9 89 -29 212 -92 259 -133
l34 -29 -27 -103 c-74 -275 -179 -458 -347 -604 -89 -77 -285 -208 -372 -249
-130 -61 -200 -70 -562 -70 -444 0 -497 12 -733 170 -272 181 -373 294 -473
524 -41 96 -112 328 -104 342 11 17 144 98 200 122 157 66 284 87 485 82 113
-2 177 -9 237 -24z"/>
<path d="M1525 849 c-170 -14 -234 -28 -251 -54 -13 -21 -14 -28 -2 -52 12
-25 18 -28 63 -27 28 0 107 6 178 13 148 16 458 10 610 -10 87 -12 99 -11 113
3 19 19 22 62 5 82 -35 41 -445 67 -716 45z"/>
</g>
</svg>
